<?xml version="1.0" standalone="no"?>
<!DOCTYPE svg PUBLIC "-//W3C//DTD SVG 20010904//EN"
 "http://www.w3.org/TR/2001/REC-SVG-20010904/DTD/svg10.dtd">
<svg version="1.0" xmlns="http://www.w3.org/2000/svg"
 width="1024.000000pt" height="1024.000000pt" viewBox="0 0 1024.000000 1024.000000"
 preserveAspectRatio="xMidYMid meet">

<g transform="translate(0.000000,1024.000000) scale(0.100000,-0.100000)"
fill="#000000" stroke="none">
<path d="M6428 8530 c-68 -20 -129 -92 -256 -300 -271 -445 -2230 -3781 -2437
-4150 -51 -90 -60 -114 -63 -167 -5 -73 10 -123 50 -169 42 -48 470 -310 1258
-769 102 -59 376 -221 610 -360 1093 -648 1124 -665 1203 -665 69 0 148 24
174 52 61 67 700 1132 1790 2983 730 1239 846 1438 866 1490 28 73 27 161 -4
220 -21 42 -41 58 -172 141 -305 195 -1775 1068 -2442 1452 -428 246 -485 270
-577 242z"/>
<path d="M4235 8491 c-47 -12 -70 -27 -115 -78 -79 -90 -53 80 -259 -1673
-121 -1027 -251 -2148 -267 -2300 -4 -36 -4 -63 -1 -60 12 12 660 1106 1594
2690 702 1192 725 1231 720 1237 -19 18 -1553 199 -1632 192 -5 -1 -23 -4 -40
-8z"/>
<path d="M3445 8264 c-883 -128 -1182 -178 -1265 -215 -62 -28 -86 -53 -110
-116 -25 -67 -25 -115 0 -328 40 -334 482 -3378 661 -4550 56 -364 60 -376
142 -452 60 -55 100 -67 206 -59 104 8 547 71 645 91 39 8 76 15 81 16 27 3
-46 17 -91 18 -101 2 -268 69 -344 137 -45 41 -106 134 -139 214 -46 111 -56
2 150 1795 60 528 152 1327 204 1775 52 448 115 995 140 1215 24 220 47 419
50 442 5 34 3 43 -12 51 -12 6 -116 -5 -318 -34z"/>
<path d="M1590 7666 c-355 -128 -1022 -391 -1118 -440 -65 -34 -120 -123 -122
-198 0 -56 374 -1073 1349 -3660 438 -1163 476 -1257 529 -1304 42 -37 130
-67 178 -60 49 6 398 122 648 215 l180 66 -175 6 c-104 4 -188 11 -209 19
-124 46 -267 198 -299 316 -28 103 -201 1248 -531 3502 -206 1410 -229 1561
-240 1582 -6 11 -12 20 -13 20 -1 -1 -81 -29 -177 -64z"/>
<path d="M3496 3573 c-21 -69 -41 -407 -27 -460 18 -64 91 -140 154 -158 83
-23 631 -99 902 -125 61 -6 130 -13 155 -16 l45 -5 -90 59 c-49 32 -225 138
-390 237 -395 235 -631 385 -693 440 -43 39 -51 43 -56 28z"/>
</g>
</svg>
